<svg width="63" height="52" viewBox="0 0 63 52" fill="none" xmlns="http://www.w3.org/2000/svg">
<g opacity="0.2">
<path opacity="0.2" fill-rule="evenodd" clip-rule="evenodd" d="M-1.91696 -49.4416C2.46842 -46.195 3.237 -39.404 5.0689 -33.762C6.7732 -28.5135 8.50139 -23.4009 8.35663 -17.804C8.18948 -11.2104 8.73794 -3.08021 4.19213 0.865726C-0.386509 4.84199 -6.85151 0.109198 -12.5785 0.375264C-17.7601 0.614464 -23.3596 5.72439 -27.6569 2.34092C-31.9997 -1.08068 -29.926 -9.11828 -31.8281 -14.788C-33.5824 -20.0166 -38.7602 -23.8178 -38.3028 -29.394C-37.8387 -35.0533 -33.272 -38.8572 -29.5522 -42.551C-25.9212 -46.1546 -21.9313 -49.1218 -17.2534 -50.2875C-12.1293 -51.5658 -6.34487 -52.7184 -1.91696 -49.4416Z" stroke="white"/>
<path opacity="0.2" fill-rule="evenodd" clip-rule="evenodd" d="M0.789514 -55.998C6.24269 -51.961 7.20005 -43.5181 9.47967 -36.5102C11.6011 -29.9842 13.7479 -23.6323 13.574 -16.6738C13.3688 -8.48295 14.0538 1.61988 8.40365 6.52348C2.71244 11.4635 -5.32628 5.57685 -12.4457 5.90098C-18.8876 6.19738 -25.8466 12.5449 -31.1908 8.33721C-36.5918 4.08448 -34.0167 -5.90386 -36.3836 -12.9499C-38.5662 -19.4499 -45.0051 -24.1756 -44.4425 -31.1029C-43.8679 -38.1342 -38.1916 -42.8608 -33.569 -47.4481C-29.0567 -51.9244 -24.0975 -55.6107 -18.2817 -57.0572C-11.9085 -58.6441 -4.71739 -60.0748 0.789514 -55.998Z" stroke="white"/>
<path opacity="0.2" fill-rule="evenodd" clip-rule="evenodd" d="M3.30565 -62.083C9.75052 -57.3163 10.8847 -47.3428 13.58 -39.0583C16.0879 -31.3502 18.6265 -23.8448 18.422 -15.627C18.1817 -5.95069 18.9936 5.98776 12.3182 11.7762C5.59423 17.6089 -3.90707 10.6539 -12.3189 11.0378C-19.9301 11.3845 -28.1524 18.8795 -34.4681 13.9057C-40.8511 8.87899 -37.8103 -2.91646 -40.6093 -11.2408C-43.1896 -18.9186 -50.7993 -24.506 -50.1322 -32.6891C-49.4554 -40.9978 -42.7486 -46.5799 -37.2872 -51.9957C-31.9564 -57.2824 -26.0944 -61.635 -19.2257 -63.3432C-11.7025 -65.2117 -3.20563 -66.899 3.30565 -62.083Z" stroke="white"/>
<path opacity="0.2" fill-rule="evenodd" clip-rule="evenodd" d="M5.91135 -68.4034C13.3852 -62.8724 14.7022 -51.3117 17.8295 -41.7099C20.7397 -32.7737 23.6834 -24.0705 23.4483 -14.5415C23.173 -3.32073 24.1199 10.5188 16.376 17.2294C8.57973 23.9894 -2.44005 15.9233 -12.195 16.3627C-21.0225 16.7614 -30.5551 25.4524 -37.8797 19.6838C-45.282 13.8555 -41.7599 0.178574 -45.0051 -9.47349C-47.9989 -18.375 -56.8248 -24.8548 -56.0488 -34.3466C-55.2653 -43.977 -47.4885 -50.4494 -41.1563 -56.7276C-34.9748 -62.8549 -28.1815 -67.9005 -20.2129 -69.8782C-11.4891 -72.0345 -1.63639 -73.9908 5.91135 -68.4034Z" stroke="white"/>
<path opacity="0.2" fill-rule="evenodd" clip-rule="evenodd" d="M9.10056 -76.1294C17.831 -69.6649 19.3734 -56.1615 23.0275 -44.9425C26.4287 -34.5026 29.8701 -24.3378 29.594 -13.208C29.2731 -0.103158 30.3775 16.0631 21.3351 23.9021C12.2316 31.7948 -0.646218 22.3712 -12.0421 22.8852C-22.3552 23.3497 -33.4906 33.4968 -42.0487 26.7594C-50.6978 19.95 -46.5833 3.97486 -50.3777 -7.30047C-53.8766 -17.7005 -64.1883 -25.2673 -63.2869 -36.352C-62.3728 -47.6005 -53.2879 -55.1588 -45.8924 -62.49C-38.6722 -69.6469 -30.7364 -75.5369 -21.4269 -77.8475C-11.228 -80.3747 0.282803 -82.6554 9.10056 -76.1294Z" stroke="white"/>
<path opacity="0.2" fill-rule="evenodd" clip-rule="evenodd" d="M12.5801 -84.556C22.6858 -77.0784 24.4699 -61.4535 28.6978 -48.4726C32.634 -36.393 36.6179 -24.6304 36.3038 -11.7543C35.9307 3.408 37.2134 22.1104 26.7525 31.1757C16.2163 40.3069 1.31705 29.4018 -11.8697 29.9963C-23.8028 30.5311 -36.6866 42.2709 -46.59 34.4735C-56.5987 26.5947 -51.8403 8.11281 -56.2324 -4.93399C-60.2827 -16.9642 -72.2151 -25.7242 -71.1749 -38.5457C-70.1183 -51.5621 -59.6089 -60.2991 -51.0508 -68.7846C-42.6934 -77.063 -33.5153 -83.8769 -22.7432 -86.5462C-10.9437 -89.4721 2.37514 -92.109 12.5801 -84.556Z" stroke="white"/>
<path opacity="0.2" fill-rule="evenodd" clip-rule="evenodd" d="M15.9625 -92.7516C27.4032 -84.2842 29.4239 -66.5991 34.2137 -51.9057C38.6715 -38.2331 43.1822 -24.9185 42.8278 -10.3429C42.4099 6.81709 43.8597 27.9875 32.0199 38.2488C20.0927 48.5821 3.2258 36.2353 -11.7018 36.9052C-25.2079 37.5119 -39.7937 50.7964 -51.0053 41.9702C-62.3362 33.0496 -56.9509 12.1307 -61.9243 -2.63643C-66.5104 -16.2526 -80.0187 -26.1698 -78.8427 -40.683C-77.6488 -55.4164 -65.7523 -65.3057 -56.0652 -74.9058C-46.6094 -84.2762 -36.2165 -91.9872 -24.0222 -95.0075C-10.6668 -98.3165 4.40999 -101.301 15.9625 -92.7516Z" stroke="white"/>
<path opacity="0.2" fill-rule="evenodd" clip-rule="evenodd" d="M19.0555 -100.244C31.7169 -90.875 33.954 -71.3057 39.2557 -55.0487C44.1888 -39.9185 49.1801 -25.187 48.7898 -9.05829C48.3287 9.93038 49.9345 33.3573 36.8328 44.7098C23.6342 56.1446 4.97039 42.4817 -11.5511 43.2219C-26.4995 43.8892 -42.6367 58.5904 -55.0444 48.8213C-67.5805 38.9483 -61.6258 15.8012 -67.1327 -0.537194C-72.2069 -15.6068 -87.1583 -26.5806 -85.857 -42.6399C-84.5362 -58.9411 -71.3726 -69.8852 -60.6528 -80.5071C-50.1897 -90.8741 -38.6886 -99.4006 -25.1952 -102.746C-10.4139 -106.404 6.26803 -109.704 19.0555 -100.244Z" stroke="white"/>
<path opacity="0.2" fill-rule="evenodd" clip-rule="evenodd" d="M22.3418 -108.203C36.3001 -97.8728 38.767 -76.3038 44.6126 -58.3803C50.0524 -41.7004 55.5563 -25.4617 55.125 -7.68031C54.6184 13.248 56.3935 39.071 41.9465 51.584C27.3957 64.187 6.82096 49.1262 -11.3891 49.9374C-27.8681 50.6749 -45.6558 66.8765 -59.335 56.1073C-73.159 45.2237 -66.5925 19.707 -72.6613 1.69941C-78.2577 -14.9103 -94.7381 -27.0079 -93.3047 -44.7104C-91.8496 -62.6799 -77.3362 -74.7422 -65.5224 -86.4509C-53.9885 -97.8788 -41.3107 -107.281 -26.4361 -110.963C-10.1437 -114.995 8.24768 -118.634 22.3418 -108.203Z" stroke="white"/>
<path opacity="0.2" fill-rule="evenodd" clip-rule="evenodd" d="M25.916 -116.864C41.2876 -105.488 44.0037 -81.7421 50.4404 -62.0037C56.4301 -43.6417 62.4914 -25.7616 62.0183 -6.1905C61.4609 16.8533 63.413 45.2844 47.5109 59.06C31.4931 72.9354 8.83493 56.3528 -11.2145 57.2463C-29.359 58.0549 -48.9443 75.8935 -64.0054 64.0349C-79.2278 52.0524 -71.9979 23.9636 -78.6808 4.13079C-84.8436 -14.1559 -102.99 -27.48 -101.413 -46.9687C-99.8115 -66.7504 -83.8348 -80.0311 -70.8249 -92.9202C-58.1262 -105.502 -44.1679 -115.852 -27.7897 -119.906C-9.85273 -124.346 10.3952 -128.352 25.916 -116.864Z" stroke="white"/>
</g>
</svg>
